<svg width="13" height="11" viewBox="0 0 13 11" fill="none" xmlns="http://www.w3.org/2000/svg">
<g clip-path="url(#clip0_121_55916)">
<path fill-rule="evenodd" clip-rule="evenodd" d="M8.31384 1.64807L11.8929 5.22748C12.1126 5.44713 12.1126 5.80326 11.8929 6.02291L8.31384 9.60235C8.09421 9.822 7.73811 9.822 7.51848 9.60235C7.29885 9.3827 7.29885 9.02657 7.51848 8.80692L10.1375 6.18765L1.74697 6.18765C1.43637 6.18765 1.18457 5.93583 1.18457 5.62519C1.18457 5.31456 1.43637 5.06274 1.74697 5.06274L10.1375 5.06274L7.51848 2.44346C7.29885 2.2238 7.29885 1.86773 7.51848 1.64807C7.73811 1.42841 8.09421 1.42841 8.31384 1.64807Z" fill="#637381"/>
</g>
<defs>
<clipPath id="clip0_121_55916">
<rect width="11.248" height="9.74922" fill="white" transform="translate(12.2451 10.5) rotate(180)"/>
</clipPath>
</defs>
</svg>
