<svg width="15" height="16" viewBox="0 0 15 16" fill="none" xmlns="http://www.w3.org/2000/svg">
<path d="M9.35285 12.2006C8.36566 12.2006 7.55566 13.0359 7.55566 14.0484C7.55566 15.0609 8.36566 15.8962 9.35285 15.8962C10.34 15.8962 11.15 15.0609 11.15 14.0484C11.1754 13.0359 10.3654 12.2006 9.35285 12.2006ZM9.35285 15.0103C8.8466 15.0103 8.4416 14.58 8.4416 14.0484C8.4416 13.5169 8.8466 13.0866 9.35285 13.0866C9.8591 13.0866 10.2641 13.5169 10.2641 14.0484C10.2894 14.58 9.8591 15.0103 9.35285 15.0103Z" fill="black"/>
<path d="M3.60688 12.2006C2.61969 12.2006 1.80969 13.0359 1.80969 14.0484C1.80969 15.0609 2.61969 15.8962 3.60688 15.8962C4.59407 15.8962 5.40406 15.0609 5.40406 14.0484C5.42938 13.0359 4.61938 12.2006 3.60688 12.2006ZM3.60688 15.0103C3.10063 15.0103 2.69563 14.58 2.69563 14.0484C2.69563 13.5169 3.10063 13.0866 3.60688 13.0866C4.11313 13.0866 4.51813 13.5169 4.51813 14.0484C4.54344 14.58 4.11313 15.0103 3.60688 15.0103Z" fill="black"/>
<path d="M13.6307 0.329041H12.0107C11.631 0.329041 11.3019 0.607478 11.2513 0.987165L10.7957 4.32841H0.847857C0.620044 4.32841 0.417544 4.42966 0.290982 4.60685C0.164419 4.78404 0.113794 5.01185 0.164419 5.21435V5.23966L1.70848 10.0237C1.78442 10.3275 2.06286 10.5553 2.41723 10.5553H9.88442C10.4413 10.5553 10.8969 10.1503 10.9729 9.59341L12.1372 1.18967H13.656C13.9091 1.18967 14.1116 0.987165 14.1116 0.73404C14.1116 0.480916 13.8838 0.329041 13.6307 0.329041ZM10.0616 9.46685C10.0363 9.5681 9.96035 9.66935 9.83379 9.66935H2.49317L1.05036 5.21435H10.6438L10.0616 9.46685Z" fill="black"/>
</svg>
