<svg width="18" height="16" viewBox="0 0 18 16" fill="none" xmlns="http://www.w3.org/2000/svg">
<path d="M9.00003 15.7063C8.66253 15.7063 8.2969 15.5938 8.04378 15.3407C7.3969 14.7782 6.75003 14.2438 6.18753 13.7657C4.52815 12.3594 3.09378 11.15 2.08127 9.94065C0.900025 8.5344 0.337524 7.1844 0.337524 5.69378C0.337524 4.23127 0.843775 2.88128 1.7719 1.8969C2.70003 0.8844 3.99378 0.321899 5.40003 0.321899C6.44065 0.321899 7.42503 0.6594 8.26878 1.30627C8.5219 1.50315 8.77503 1.72815 9.00003 1.98127C9.22503 1.72815 9.47815 1.50315 9.73128 1.30627C10.575 0.6594 11.5313 0.321899 12.6 0.321899C14.0063 0.321899 15.2719 0.8844 16.2282 1.8969C17.1563 2.88128 17.6625 4.23127 17.6625 5.69378C17.6625 7.1844 17.1 8.5344 15.9188 9.94065C14.9063 11.15 13.4719 12.3594 11.8125 13.7657C11.25 14.2438 10.6032 14.7782 9.95628 15.3407C9.70315 15.5657 9.33753 15.7063 9.00003 15.7063ZM5.40003 1.27815C4.27503 1.27815 3.2344 1.72815 2.50315 2.54378C1.74377 3.3594 1.35002 4.45628 1.35002 5.66565C1.35002 6.90315 1.82815 8.05628 2.84065 9.29378C3.7969 10.4469 5.20315 11.6282 6.8344 13.0063C7.3969 13.4844 8.04378 14.0188 8.69065 14.6094C8.8594 14.75 9.14065 14.75 9.3094 14.6094C9.9844 14.0469 10.6032 13.4844 11.1657 13.0063C12.7969 11.6282 14.2032 10.4469 15.1594 9.29378C16.1719 8.05628 16.65 6.90315 16.65 5.66565C16.65 4.45628 16.2282 3.3594 15.4969 2.54378C14.7375 1.72815 13.725 1.27815 12.6 1.27815C11.7563 1.27815 10.9969 1.53127 10.35 2.06565C10.0688 2.26252 9.84378 2.51565 9.59065 2.7969C9.45003 2.96565 9.22503 3.07815 9.00003 3.07815C8.77503 3.07815 8.55003 2.96565 8.4094 2.7969C8.1844 2.51565 7.93128 2.26252 7.65003 2.06565C7.00315 1.5594 6.24378 1.27815 5.40003 1.27815Z" fill="#212B36"/>
</svg>
