<svg width="96" height="16" viewBox="0 0 96 16" fill="none" xmlns="http://www.w3.org/2000/svg">
<g clip-path="url(#clip0_121_56002)">
<path d="M14.925 5.975L10.4 5.275L8.34996 0.975C8.19996 0.675 7.79996 0.675 7.64996 0.975L5.59996 5.3L1.09996 5.975C0.77496 6.025 0.64996 6.45 0.89996 6.675L4.17496 10.05L3.39996 14.775C3.34996 15.1 3.67496 15.375 3.97496 15.175L8.04996 12.95L12.1 15.175C12.375 15.325 12.725 15.075 12.65 14.775L11.875 10.05L15.15 6.675C15.35 6.45 15.25 6.025 14.925 5.975Z" fill="#FFA645"/>
</g>
<g clip-path="url(#clip1_121_56002)">
<path d="M34.925 5.975L30.4 5.275L28.35 0.975C28.2 0.675 27.8 0.675 27.65 0.975L25.6 5.3L21.1 5.975C20.775 6.025 20.65 6.45 20.9 6.675L24.175 10.05L23.4 14.775C23.35 15.1 23.675 15.375 23.975 15.175L28.05 12.95L32.1 15.175C32.375 15.325 32.725 15.075 32.65 14.775L31.875 10.05L35.15 6.675C35.35 6.45 35.25 6.025 34.925 5.975Z" fill="#FFA645"/>
</g>
<g clip-path="url(#clip2_121_56002)">
<path d="M54.925 5.975L50.4 5.275L48.35 0.975C48.2 0.675 47.8 0.675 47.65 0.975L45.6 5.3L41.1 5.975C40.775 6.025 40.65 6.45 40.9 6.675L44.175 10.05L43.4 14.775C43.35 15.1 43.675 15.375 43.975 15.175L48.05 12.95L52.1 15.175C52.375 15.325 52.725 15.075 52.65 14.775L51.875 10.05L55.15 6.675C55.35 6.45 55.25 6.025 54.925 5.975Z" fill="#FFA645"/>
</g>
<g clip-path="url(#clip3_121_56002)">
<path d="M74.925 5.975L70.4 5.275L68.35 0.975C68.2 0.675 67.8 0.675 67.65 0.975L65.6 5.3L61.1 5.975C60.775 6.025 60.65 6.45 60.9 6.675L64.175 10.05L63.4 14.775C63.35 15.1 63.675 15.375 63.975 15.175L68.05 12.95L72.1 15.175C72.375 15.325 72.725 15.075 72.65 14.775L71.875 10.05L75.15 6.675C75.35 6.45 75.25 6.025 74.925 5.975Z" fill="#FFA645"/>
</g>
<g clip-path="url(#clip4_121_56002)">
<path d="M94.925 5.975L90.4 5.275L88.35 0.975C88.2 0.675 87.8 0.675 87.65 0.975L85.6 5.3L81.1 5.975C80.775 6.025 80.65 6.45 80.9 6.675L84.175 10.05L83.4 14.775C83.35 15.1 83.675 15.375 83.975 15.175L88.05 12.95L92.1 15.175C92.375 15.325 92.725 15.075 92.65 14.775L91.875 10.05L95.15 6.675C95.35 6.45 95.25 6.025 94.925 5.975Z" fill="#FFA645"/>
</g>
<defs>
<clipPath id="clip0_121_56002">
<rect width="16" height="16" fill="white"/>
</clipPath>
<clipPath id="clip1_121_56002">
<rect width="16" height="16" fill="white" transform="translate(20)"/>
</clipPath>
<clipPath id="clip2_121_56002">
<rect width="16" height="16" fill="white" transform="translate(40)"/>
</clipPath>
<clipPath id="clip3_121_56002">
<rect width="16" height="16" fill="white" transform="translate(60)"/>
</clipPath>
<clipPath id="clip4_121_56002">
<rect width="16" height="16" fill="white" transform="translate(80)"/>
</clipPath>
</defs>
</svg>
